<svg width="30" height="30" viewBox="0 0 30 30" fill="none" xmlns="http://www.w3.org/2000/svg">
    <path
        d="M14.5313 0.878906C13.4707 0.878906 12.5977 1.75078 12.5977 2.8125C12.5977 3.87422 13.4707 4.74609 14.5313 4.74609C15.5918 4.74609 16.4648 3.87422 16.4648 2.8125C16.4648 1.75078 15.5918 0.878906 14.5313 0.878906ZM14.5313 1.93359C15.0234 1.93359 15.4102 2.3209 15.4102 2.8125C15.4102 3.3041 15.0234 3.69141 14.5313 3.69141C14.0391 3.69141 13.6523 3.3041 13.6523 2.8125C13.6523 2.3209 14.0391 1.93359 14.5313 1.93359ZM3.75 4.27734C2.68828 4.27734 1.81641 5.14922 1.81641 6.21094C1.81641 7.27148 2.68828 8.14453 3.75 8.14453C4.81172 8.14453 5.68359 7.27148 5.68359 6.21094C5.68359 5.14922 4.81172 4.27734 3.75 4.27734ZM3.75 5.33203C4.2416 5.33203 4.62891 5.71934 4.62891 6.21094C4.62891 6.70312 4.2416 7.08984 3.75 7.08984C3.2584 7.08984 2.87109 6.70312 2.87109 6.21094C2.87109 5.71934 3.2584 5.33203 3.75 5.33203ZM12.8848 7.6582C11.5664 7.6582 10.4824 8.74219 10.4824 10.0605C10.4824 11.3789 11.5664 12.4629 12.8848 12.4629C14.2031 12.4629 15.2871 11.3789 15.2871 10.0605C15.2871 8.74219 14.2031 7.6582 12.8848 7.6582ZM12.8848 8.71289C13.6348 8.71289 14.2324 9.31055 14.2324 10.0605C14.2324 10.8105 13.6348 11.4082 12.8848 11.4082C12.1348 11.4082 11.5371 10.8105 11.5371 10.0605C11.5371 9.31055 12.1348 8.71289 12.8848 8.71289ZM6.5625 9.49219C6.31386 9.49219 6.0754 9.59096 5.89959 9.76678C5.72377 9.94259 5.625 10.181 5.625 10.4297C5.625 10.6783 5.72377 10.9168 5.89959 11.0926C6.0754 11.2684 6.31386 11.3672 6.5625 11.3672C6.81114 11.3672 7.0496 11.2684 7.22541 11.0926C7.40123 10.9168 7.5 10.6783 7.5 10.4297C7.5 10.181 7.40123 9.94259 7.22541 9.76678C7.0496 9.59096 6.81114 9.49219 6.5625 9.49219ZM19.6289 13.0898C19.3359 13.1016 19.0078 13.2305 18.457 13.5059L12.709 16.3828C12.7148 16.4297 12.7148 16.4766 12.7148 16.5234C12.7148 18.1055 11.4258 19.3945 9.84375 19.3945C9.14648 19.3945 8.51367 19.1484 8.01563 18.7324L6.64453 19.418C6.16406 19.6992 5.80898 19.9043 5.58926 20.1738C5.36777 20.4492 5.21484 20.8184 5.21484 21.6035V24.1289C5.21484 24.7383 5.24941 24.9902 5.28398 25.0488C5.31914 25.1133 5.45977 25.2246 5.95898 25.4824L10.5703 27.791L10.5879 27.7969C11.543 28.3652 12.7441 28.3125 13.9102 27.7266L25.5879 21.9316C26.1445 21.6211 26.3848 21.3984 26.502 21.1875C26.6191 20.9707 26.6602 20.6777 26.6602 20.127V17.8652C26.6602 17.1211 26.6719 16.7051 26.6133 16.5527C26.5605 16.3945 26.4668 16.2832 25.8926 16.002V15.9961L20.9238 13.5117L20.918 13.5059C20.2793 13.1719 19.9277 13.0781 19.6289 13.0898ZM9.84375 14.707C8.83594 14.707 8.02734 15.5156 8.02734 16.5234C8.02734 17.5312 8.83594 18.3398 9.84375 18.3398C10.8516 18.3398 11.6602 17.5312 11.6602 16.5234C11.6602 15.5156 10.8516 14.707 9.84375 14.707ZM24.3047 16.7285L24.7617 17.6777L15.7383 22.002H15.7324C14.7363 22.459 13.957 22.875 13.0781 23.0332C12.2051 23.1855 11.2734 23.0098 10.1719 22.3887L10.1953 22.4062L7.64648 21.1523L8.11523 20.2031L10.6758 21.4629L10.6875 21.4746C11.6602 22.0195 12.2578 22.1016 12.9023 21.9902C13.541 21.8789 14.2676 21.5098 15.293 21.041L24.3047 16.7285Z"
        fill="white" />
</svg>