<svg width="25" height="25" viewBox="0 0 25 25" fill="none" xmlns="http://www.w3.org/2000/svg">
<path d="M2.5 6.09033L9.41302 10.0073C11.9616 11.4513 13.0384 11.4513 15.587 10.0073L22.5 6.09033" stroke="white" stroke-width="1.5" stroke-linejoin="round"/>
<path d="M2.51577 13.5659C2.58114 16.6315 2.61383 18.1642 3.74496 19.2997C4.87608 20.4351 6.45033 20.4746 9.59883 20.5537C11.5393 20.6025 13.4607 20.6025 15.4012 20.5537C18.5497 20.4746 20.1239 20.4351 21.2551 19.2997C22.3862 18.1642 22.4189 16.6315 22.4842 13.5659C22.5053 12.5802 22.5053 11.6004 22.4842 10.6147C22.4189 7.54919 22.3862 6.01642 21.2551 4.88099C20.1239 3.74556 18.5497 3.70601 15.4012 3.6269C13.4607 3.57814 11.5393 3.57814 9.59882 3.62689C6.45033 3.70599 4.87608 3.74554 3.74495 4.88098C2.61382 6.01641 2.58114 7.54918 2.51576 10.6147C2.49474 11.6004 2.49475 12.5802 2.51577 13.5659Z" stroke="white" stroke-width="1.5" stroke-linejoin="round"/>
</svg>
