<svg width="30" height="30" viewBox="0 0 30 30" fill="none" xmlns="http://www.w3.org/2000/svg">
    <path
        d="M25.2475 3.75H4.7525C3.81434 3.75 3.34525 3.75 3.02047 3.97157C2.8596 4.08131 2.72667 4.22636 2.63209 4.39534C2.44113 4.73651 2.4878 5.19741 2.58117 6.11921C2.73698 7.6578 2.81488 8.4271 3.22279 8.9771C3.42605 9.25119 3.68377 9.48149 3.98018 9.65394C4.57499 10 5.35794 10 6.92385 10H23.0761C24.642 10 25.425 10 26.0199 9.65394C26.3163 9.48149 26.574 9.25119 26.7773 8.9771C27.1851 8.4271 27.263 7.6578 27.4189 6.11921C27.5123 5.19741 27.5589 4.73651 27.3679 4.39534C27.2734 4.22636 27.1404 4.08131 26.9795 3.97157C26.6548 3.75 26.1856 3.75 25.2475 3.75Z"
        stroke="white" stroke-width="1.875" stroke-linecap="round" stroke-linejoin="round" />
    <path
        d="M3.75 10V16.301C3.75 20.991 3.75 23.336 5.21446 24.793C6.67894 26.25 9.03595 26.25 13.75 26.25H16.25C20.964 26.25 23.3211 26.25 24.7855 24.793C26.25 23.336 26.25 20.991 26.25 16.301V10"
        stroke="white" stroke-width="1.875" stroke-linecap="round" stroke-linejoin="round" />
    <path d="M12.5 13.75H17.5" stroke="white" stroke-width="1.875" stroke-linecap="round" />
</svg>