<svg width="30" height="30" viewBox="0 0 30 30" fill="none" xmlns="http://www.w3.org/2000/svg">
    <path
        d="M18.125 6.25H15.625C12.0895 6.25 10.3217 6.25 9.22335 7.34835C8.125 8.4467 8.125 10.2145 8.125 13.75V20C8.125 23.5355 8.125 25.3032 9.22335 26.4016C10.3217 27.5 12.0895 27.5 15.625 27.5H17.3039C18.3257 27.5 18.8368 27.5 19.2961 27.3097C19.7556 27.1194 20.1169 26.7581 20.8395 26.0355L24.1605 22.7145C24.8831 21.9919 25.2444 21.6306 25.4347 21.1711C25.625 20.7117 25.625 20.2007 25.625 19.1789V13.75C25.625 10.2145 25.625 8.4467 24.5266 7.34835C23.4282 6.25 21.6605 6.25 18.125 6.25Z"
        stroke="white" stroke-width="1.875" stroke-linecap="round" stroke-linejoin="round" />
    <path
        d="M18.75 26.875V25.625C18.75 23.268 18.75 22.0895 19.4823 21.3573C20.2145 20.625 21.393 20.625 23.75 20.625H25"
        stroke="white" stroke-width="1.875" stroke-linecap="round" stroke-linejoin="round" />
    <path
        d="M8.125 23.75C6.05394 23.75 4.375 22.0711 4.375 20V10C4.375 6.46446 4.375 4.6967 5.47335 3.59835C6.5717 2.5 8.33946 2.5 11.875 2.5H18.1255C20.1965 2.50001 21.8755 4.17899 21.8755 6.25004"
        stroke="white" stroke-width="1.875" stroke-linecap="round" stroke-linejoin="round" />
    <path d="M12.5014 16.25H17.5014M12.5014 11.25H21.2514" stroke="white" stroke-width="1.875" stroke-linecap="round"
        stroke-linejoin="round" />
</svg>