<svg width="180" height="48" viewBox="0 0 180 48" fill="none" xmlns="http://www.w3.org/2000/svg">
    <g clip-path="url(#clip0_1253_2451)">
        <path
            d="M88.7533 47.0903C88.5335 47.0335 88.312 46.9832 88.0944 46.9195C87.0763 46.6206 86.6677 45.572 87.2165 44.6563C87.3189 44.4856 87.4441 44.3239 87.5808 44.1789C88.3589 43.3557 88.7718 42.3587 88.9193 41.2563C89.0234 40.4774 89.0995 39.6882 89.1047 38.9028C89.1426 32.8817 89.1615 26.8602 89.1804 20.8387C89.1817 20.4675 89.1464 20.0946 89.1086 19.7247C89.0238 18.8933 88.6724 18.1897 88.0651 17.6137C87.8677 17.4262 87.6608 17.2469 87.4785 17.0456C86.7159 16.2039 86.9529 14.9944 88.0028 14.5746C88.6501 14.3157 89.3378 14.1497 90.0174 13.9802C91.0479 13.7234 92.0557 13.4021 93.0389 13.0026C94.1236 12.5617 95.118 11.9755 95.9744 11.1677C96.3524 10.8107 96.7877 10.597 97.3258 10.6073C98.0286 10.6211 98.5249 10.9363 98.826 11.5677C99.1357 12.2176 99.1856 12.9191 99.2277 13.6211C99.2458 13.9213 99.2333 14.2232 99.2479 14.5239C99.2552 14.6765 99.2922 14.8275 99.3146 14.9733C99.5352 15.0082 99.5972 14.855 99.6776 14.7497C99.9206 14.4305 100.148 14.0993 100.39 13.7798C100.859 13.1608 101.377 12.5875 101.984 12.0989C103.497 10.8821 105.233 10.4555 107.139 10.6537C110.198 10.9716 112.342 12.6542 113.874 15.2228C114.894 16.9342 115.458 18.8073 115.74 20.7669C116.094 23.2223 115.969 25.6572 115.321 28.0555C114.716 30.2937 113.71 32.3144 112.014 33.9393C110.651 35.246 109.034 36.0525 107.164 36.3411C105.686 36.569 104.224 36.5312 102.784 36.089C101.706 35.7583 100.768 35.2086 100.002 34.3729C99.8415 34.1978 99.6918 33.9961 99.3662 33.9471C99.3232 34.1148 99.2471 34.2718 99.2484 34.4279C99.266 36.4912 99.143 38.5574 99.3374 40.6172C99.4669 41.9875 99.8587 43.2568 100.846 44.2804C101.108 44.5522 101.283 44.8744 101.333 45.2645C101.436 46.0684 101.099 46.6335 100.328 46.8894C100.086 46.9694 99.8359 47.0236 99.5894 47.0894H97.9555C97.8737 47.0675 97.7933 47.0348 97.7099 47.0254C97.1426 46.9613 96.5757 46.8899 96.0066 46.8447C95.2957 46.7879 94.5813 46.7041 93.8712 46.723C93.0454 46.7454 92.2221 46.8623 91.3985 46.9471C91.06 46.9819 90.7245 47.0408 90.3873 47.089H88.7533V47.0903ZM105.698 24.8916C105.681 23.4357 105.568 22.0826 105.184 20.7651C104.979 20.0598 104.703 19.3858 104.26 18.7922C103.872 18.2718 103.39 17.8752 102.735 17.7518C101.792 17.5742 101.054 17.9415 100.461 18.6512C99.9469 19.2675 99.6449 19.9952 99.4251 20.7561C98.9425 22.4266 98.832 24.135 98.9413 25.8623C99.0084 26.923 99.1576 27.9699 99.5008 28.9815C99.7232 29.6374 100.019 30.255 100.481 30.7798C101.459 31.8882 102.973 31.9312 104.003 30.8731C104.181 30.6899 104.361 30.4903 104.475 30.2649C104.731 29.7557 104.994 29.2408 105.168 28.7006C105.576 27.4365 105.695 26.1243 105.698 24.8916Z"
            fill="black" />
        <path
            d="M0 29.7999C0.0576344 29.6248 0.129032 29.4532 0.170323 29.2743C0.406452 28.2472 1.12645 27.5857 2.16086 27.384C3.22495 27.1766 4.12215 27.4476 4.84731 28.2437C5.23226 28.6665 5.57548 29.1276 5.94538 29.5646C6.47226 30.187 6.96946 30.8407 7.54624 31.4141C8.62925 32.491 9.97376 33.0089 11.4951 33.0627C12.3114 33.0915 13.1286 33.1035 13.9316 32.9078C14.0288 32.8842 14.1243 32.8536 14.2206 32.827C15.5247 32.4683 15.6774 30.916 14.9751 30.1164C14.6568 29.7543 14.2701 29.4769 13.8348 29.2902C13.0465 28.9521 12.2508 28.6274 11.4426 28.3401C10.0938 27.8609 8.72559 27.4369 7.37979 26.9513C6.06968 26.4786 4.81806 25.876 3.67699 25.0652C2.20559 24.0201 1.10151 22.6941 0.665376 20.9121C0.187957 18.9629 0.266667 17.0455 1.20086 15.2218C1.79828 14.0549 2.69849 13.1719 3.80301 12.4829C5.16215 11.6347 6.65892 11.1573 8.22237 10.8975C11.4951 10.353 14.7325 10.559 17.9178 11.4799C19.289 11.8764 20.5781 12.4631 21.6959 13.3741C22.6929 14.187 23.3944 15.1857 23.6176 16.4829C23.8843 18.0351 23.1062 19.3427 21.6628 19.6889C20.8873 19.8747 20.1239 19.753 19.3979 19.4291C18.8826 19.1994 18.412 18.8902 18.0318 18.4751C17.5389 17.9371 17.0826 17.3659 16.6047 16.8136C16.0989 16.2291 15.6219 15.6141 15.0697 15.0773C13.9811 14.0201 12.6551 13.636 11.1574 13.876C9.79097 14.0945 9.0314 15.1207 9.21204 16.4898C9.27484 16.9646 9.50753 17.3508 9.85979 17.67C10.3032 18.0717 10.8206 18.359 11.3832 18.5306C12.5867 18.8984 13.7991 19.2394 15.0151 19.5642C16.4125 19.9371 17.8159 20.2867 19.1475 20.8661C20.2318 21.3379 21.2452 21.9212 22.0873 22.7693C23.1269 23.8166 23.6899 25.0919 23.8912 26.5379C24.086 27.9375 23.9905 29.3113 23.4757 30.6399C22.7923 32.4042 21.5402 33.6614 19.9191 34.5762C18.4684 35.3947 16.8946 35.8674 15.2632 36.1543C13.9058 36.393 12.5346 36.5164 11.157 36.479C8.56903 36.4089 6.06151 35.9431 3.70409 34.8291C2.76473 34.3852 1.91054 33.8115 1.22237 33.0171C0.655914 32.3637 0.276989 31.6235 0.150108 30.7599C0.123871 30.5797 0.0516129 30.4063 0.000860215 30.23C0.000860215 30.0867 0.000860215 29.9431 0.000860215 29.7999H0Z"
            fill="black" />
        <path
            d="M180 10.4452H179.32V8.91315C179.287 8.90713 179.254 8.90111 179.222 8.89509C179.082 9.40305 178.942 9.91057 178.798 10.4362H178.071C177.934 9.94369 177.795 9.44305 177.656 8.9424C177.634 8.94584 177.611 8.94928 177.589 8.95272V10.4263H176.912V7.76864H177.983C178.123 8.36133 178.262 8.94928 178.401 9.53724C178.432 9.53896 178.462 9.54025 178.493 9.54197C178.628 8.96735 178.764 8.39229 178.909 7.77724C179.268 7.72563 179.633 7.72735 180 7.77896V10.4456L180 10.4452Z"
            fill="black" />
        <path
            d="M167.032 27.894C166.999 25.8876 166.973 23.8811 166.928 21.8751C166.911 21.1142 166.791 20.3628 166.581 19.6295C166.51 19.3826 166.423 19.1374 166.316 18.9043C165.912 18.0273 165.259 17.4923 164.262 17.4514C163.279 17.4114 162.458 17.7211 161.891 18.565C161.474 19.1856 161.266 19.8867 161.174 20.6157C161.093 21.254 161.047 21.8996 161.03 22.5426C160.978 24.5202 160.943 26.4983 160.909 28.4759C160.893 29.4097 160.96 30.337 161.156 31.2531C161.349 32.1581 161.741 32.9491 162.402 33.6114C162.629 33.8385 162.844 34.1202 162.949 34.4179C163.257 35.2888 162.827 36.054 161.922 36.3142C161.295 36.4944 160.648 36.5181 160.003 36.4669C159.16 36.4002 158.316 36.3374 157.48 36.2205C156.188 36.039 154.91 36.125 153.625 36.282C152.546 36.414 151.464 36.5701 150.371 36.4316C150.159 36.4045 149.945 36.3701 149.74 36.3091C148.659 35.9878 148.523 35.0514 148.782 34.2953C148.863 34.0596 149.02 33.8316 149.195 33.6501C150.136 32.6712 150.554 31.4682 150.668 30.1547C150.748 29.2433 150.761 28.3245 150.769 27.4088C150.791 24.771 150.795 22.1331 150.808 19.4957C150.822 16.3706 150.842 13.2454 150.85 10.1202C150.851 9.73487 150.813 9.34734 150.764 8.96498C150.663 8.18648 150.331 7.51637 149.767 6.96498C149.593 6.79465 149.416 6.62648 149.253 6.44584C149.015 6.18261 148.881 5.87336 148.862 5.51422C148.818 4.72154 149.074 4.25272 149.812 3.96326C150.329 3.75981 150.872 3.61616 151.412 3.48024C152.482 3.21057 153.542 2.9168 154.57 2.50648C155.724 2.04541 156.792 1.44842 157.713 0.602395C158.023 0.317234 158.365 0.090997 158.795 0.0247605C159.584 -0.0960997 160.209 0.214438 160.578 0.921105C160.841 1.42605 160.945 1.97444 160.988 2.53401C161.019 2.9482 161.03 3.36455 161.03 3.78003C161.033 7.45014 161.031 11.1198 161.036 14.7899C161.036 14.98 160.935 15.2385 161.148 15.3435C161.392 15.4643 161.572 15.2398 161.735 15.0906C162.264 14.6071 162.776 14.1056 163.305 13.6217C164.271 12.7366 165.313 11.9581 166.514 11.414C168.601 10.4682 170.743 10.3387 172.922 11.0351C174.354 11.4927 175.411 12.4183 176.117 13.7448C176.684 14.8123 176.964 15.9645 177.067 17.1577C177.133 17.9276 177.157 18.703 177.16 19.4764C177.171 22.4295 177.148 25.3826 177.178 28.3357C177.187 29.2054 177.298 30.0785 177.424 30.9409C177.568 31.9254 177.986 32.799 178.669 33.5379C178.954 33.8454 179.187 34.1787 179.26 34.6127C179.433 35.6342 178.964 36.2888 177.945 36.4385C177.312 36.5314 176.687 36.4493 176.06 36.383C175.377 36.3108 174.694 36.2286 174.012 36.1495C172.89 36.0192 171.781 36.1538 170.671 36.2914C170.301 36.3374 169.932 36.4015 169.561 36.4196C168.051 36.4927 167.052 35.5577 167.005 34.0433C167 33.8858 167.001 33.728 167.001 33.5701C167.001 31.6777 167.001 29.7856 167.001 27.8931C167.011 27.8931 167.022 27.8931 167.032 27.8927L167.032 27.894Z"
            fill="black" />
        <path
            d="M83.0593 25.51C83.0916 26.8563 83.0993 28.2038 83.1669 29.5483C83.1974 30.1591 83.3157 30.7711 83.449 31.3703C83.6365 32.2107 84.0477 32.9457 84.6434 33.5733C85.0456 33.9969 85.2757 34.4847 85.2314 35.0864C85.1841 35.7298 84.8697 36.1767 84.2434 36.3389C83.8744 36.4343 83.4783 36.4903 83.0993 36.4687C82.2856 36.4223 81.4714 36.3401 80.6641 36.2262C79.3019 36.0339 77.9514 36.1165 76.5965 36.2933C76.0163 36.369 75.4267 36.4322 74.8439 36.4137C73.8516 36.3823 73.234 35.7905 73.0714 34.812C73.0482 34.6709 73.0426 34.5255 73.0086 34.3875C72.9368 34.0971 72.8821 33.7961 72.7634 33.5247C72.5905 33.129 72.2942 32.9965 71.8864 33.1247C71.603 33.2137 71.32 33.3354 71.0692 33.4937C70.3548 33.9444 69.6615 34.4292 68.9514 34.8868C68.0563 35.4636 67.1122 35.9444 66.0774 36.2154C64.4215 36.649 62.7793 36.5702 61.1811 35.9642C59.6611 35.3875 58.5153 34.347 57.9329 32.8326C56.6886 29.5978 57.0292 26.5573 59.32 23.8606C60.3565 22.6399 61.6907 21.7965 63.1239 21.1083C64.9948 20.2098 66.978 19.6606 68.9978 19.221C69.9372 19.0167 70.8585 18.741 71.7019 18.2666C72.0361 18.0786 72.3669 17.8619 72.6443 17.5999C73.5135 16.7797 73.5084 15.5062 72.6619 14.6554C72.0688 14.0593 71.3153 13.8571 70.5118 13.8167C69.2185 13.7513 68.0731 14.147 67.1424 15.0537C66.631 15.5518 66.1768 16.1096 65.7092 16.6511C65.1948 17.2472 64.7208 17.8804 64.1815 18.4524C63.5819 19.089 62.8503 19.5371 61.9716 19.6971C61.489 19.7849 61.003 19.8111 60.5226 19.6821C59.1553 19.3152 58.3824 18.0692 58.5961 16.6034C58.791 15.2683 59.4843 14.2318 60.5024 13.3922C61.6959 12.4077 63.0877 11.812 64.5591 11.3943C66.9815 10.7062 69.4606 10.5152 71.9647 10.6438C73.4271 10.7186 74.8649 10.9647 76.2585 11.4425C79.6873 12.618 81.7867 14.9918 82.6451 18.4933C82.9815 19.8657 83.08 21.2644 83.0882 22.6718C83.0938 23.6176 83.0894 24.5638 83.0894 25.5096C83.0796 25.5096 83.0692 25.51 83.0593 25.5105V25.51ZM73.3144 24.4283C73.292 24.4266 73.2697 24.4253 73.2469 24.4236C73.2469 23.8365 73.2477 23.2498 73.2456 22.6627C73.2456 22.5918 73.2318 22.5204 73.2219 22.4494C73.1144 21.6907 72.7024 21.4451 71.9828 21.7109C71.929 21.7307 71.8757 21.7518 71.8249 21.7776C71.0348 22.1801 70.2434 22.5801 69.4563 22.9887C69.2791 23.0808 69.1148 23.1978 68.9484 23.3092C67.2959 24.4124 66.7196 25.9582 67.0731 27.8838C67.3079 29.1642 68.0761 29.9733 69.3428 30.1978C70.6426 30.4279 71.7011 30.0365 72.4473 28.8748C72.7841 28.3505 73.0245 27.7758 73.0959 27.1612C73.2013 26.2541 73.2447 25.3397 73.3144 24.4283Z"
            fill="black" />
        <path
            d="M144.746 25.3611C144.771 26.6935 144.765 28.0277 144.833 29.3576C144.869 30.0535 145.008 30.7486 145.151 31.4329C145.326 32.2647 145.757 32.974 146.338 33.5903C146.754 34.0303 146.964 34.5383 146.901 35.1533C146.84 35.7421 146.547 36.1645 145.981 36.3219C145.6 36.4277 145.188 36.4892 144.796 36.4686C143.968 36.4243 143.14 36.3383 142.318 36.223C140.97 36.0337 139.633 36.1163 138.293 36.291C137.741 36.3632 137.181 36.4286 136.626 36.42C135.538 36.4032 134.907 35.8101 134.739 34.7447C134.683 34.3925 134.627 34.0346 134.517 33.6974C134.329 33.1241 133.974 32.9482 133.418 33.1675C133.049 33.3129 132.701 33.5223 132.361 33.7327C131.424 34.3129 130.52 34.9486 129.561 35.4897C128.015 36.3619 126.336 36.6389 124.578 36.4054C121.727 36.0273 119.809 34.3146 119.165 31.5086C118.717 29.5568 118.848 27.6355 119.705 25.7976C120.351 24.4135 121.352 23.3271 122.573 22.4312C124.046 21.3507 125.687 20.6088 127.423 20.0841C128.614 19.7241 129.83 19.4488 131.035 19.1353C131.84 18.9258 132.637 18.6879 133.364 18.2737C133.698 18.0836 134.031 17.872 134.311 17.6118C135.206 16.7761 135.201 15.4991 134.325 14.6368C133.726 14.0484 132.971 13.8514 132.167 13.8144C130.872 13.7546 129.732 14.1606 128.803 15.0673C128.322 15.5357 127.891 16.0561 127.454 16.5679C127.11 16.9709 126.798 17.4011 126.461 17.8097C126.03 18.3309 125.553 18.8019 124.977 19.1684C124.341 19.5731 123.647 19.7679 122.901 19.7675C121.232 19.7658 120.05 18.3791 120.262 16.7077C120.436 15.3357 121.125 14.2673 122.166 13.4041C123.357 12.4161 124.748 11.8178 126.219 11.3985C128.471 10.7572 130.775 10.5512 133.108 10.6217C134.763 10.6716 136.386 10.9099 137.959 11.4505C141.353 12.617 143.441 14.9675 144.309 18.4316C144.66 19.8316 144.754 21.2587 144.767 22.6944C144.775 23.583 144.769 24.4716 144.769 25.3602C144.761 25.3602 144.754 25.3602 144.746 25.3602L144.746 25.3611ZM134.963 24.4187C134.951 24.4183 134.939 24.4178 134.928 24.417C134.928 23.8871 134.935 23.3572 134.925 22.8277C134.92 22.6148 134.9 22.3972 134.85 22.1912C134.743 21.752 134.48 21.5692 134.03 21.626C133.836 21.6505 133.637 21.7137 133.461 21.8006C132.717 22.1666 131.961 22.5163 131.247 22.9353C130.733 23.2368 130.249 23.6062 129.803 24.0028C129.244 24.4991 128.913 25.1533 128.752 25.8849C128.595 26.5959 128.618 27.3116 128.779 28.0152C129.05 29.2023 129.766 29.9666 130.986 30.1903C132.179 30.4092 133.203 30.1159 133.959 29.1159C134.482 28.4239 134.758 27.6251 134.843 26.7744C134.921 25.9929 134.926 25.2041 134.963 24.4183L134.963 24.4187Z"
            fill="black" />
        <path
            d="M40.474 36.4821C38.397 36.452 36.2512 36.163 34.2069 35.3169C31.0465 34.0094 28.8559 31.7582 27.7893 28.5075C26.6847 25.1406 26.6804 21.7363 27.8486 18.378C28.9871 15.1053 31.2688 12.9113 34.4718 11.6541C36.1286 11.0038 37.8637 10.7161 39.6318 10.6292C41.6039 10.532 43.5561 10.6937 45.4628 11.2283C48.1549 11.9827 50.4086 13.3944 52.0305 15.7178C53.0826 17.2245 53.7028 18.9083 54.0013 20.7118C54.3123 22.5913 54.3398 24.4756 54.0116 26.3582C53.4503 29.5767 51.969 32.2335 49.2447 34.1195C47.7007 35.1883 45.9712 35.8141 44.1364 36.1595C42.9652 36.3797 41.7811 36.4782 40.4736 36.4821H40.474ZM43.8516 23.1251C43.8516 22.6236 43.868 22.1217 43.8486 21.621C43.7961 20.2894 43.7032 18.9608 43.4284 17.6529C43.2538 16.8232 43.0095 16.0197 42.5643 15.2851C41.6435 13.7651 39.6654 13.7096 38.7338 15.2709C38.4723 15.7092 38.2619 16.1892 38.1019 16.6744C37.6262 18.1144 37.5045 19.6154 37.4146 21.1182C37.3179 22.7363 37.3514 24.3556 37.4245 25.9729C37.4835 27.2752 37.6121 28.5733 37.9325 29.8421C38.1368 30.6511 38.4009 31.4382 38.9338 32.1019C39.8422 33.2335 41.4056 33.2559 42.3075 32.1195C42.5961 31.7556 42.8159 31.323 43 30.8929C43.3342 30.1126 43.4847 29.2778 43.6056 28.4404C43.8607 26.6769 43.8976 24.9023 43.8525 23.1247L43.8516 23.1251Z"
            fill="black" />
        <path
            d="M111.389 41.9479C111.774 41.2911 112.291 41.1573 112.909 41.3203C113.365 41.4412 113.671 41.7668 113.686 42.2356C113.711 43.0919 113.693 43.9496 113.693 44.8369H112.531C112.531 44.6786 112.532 44.5251 112.531 44.3715C112.526 43.8416 112.522 43.3117 112.511 42.7818C112.508 42.6541 112.494 42.5221 112.455 42.4012C112.394 42.2098 112.26 42.0902 112.046 42.0773C111.819 42.0636 111.638 42.1526 111.573 42.3668C111.508 42.5827 111.471 42.8141 111.466 43.0395C111.452 43.6249 111.461 44.2111 111.461 44.8218C111.061 44.8967 110.687 44.8786 110.268 44.833C110.268 44.5457 110.269 44.2769 110.268 44.0081C110.267 43.6068 110.268 43.2059 110.259 42.8046C110.257 42.6773 110.24 42.5466 110.206 42.4244C110.145 42.2115 110.004 42.0833 109.771 42.076C109.543 42.0692 109.375 42.1681 109.31 42.3849C109.258 42.5608 109.223 42.7474 109.218 42.9302C109.205 43.4171 109.212 43.9044 109.212 44.3913C109.212 44.5315 109.212 44.6713 109.212 44.8386H108.048V41.3784H109.171C109.191 41.4881 109.213 41.6089 109.245 41.7831C109.516 41.3676 109.893 41.2266 110.338 41.2601C110.776 41.2928 111.138 41.4679 111.389 41.947V41.9479Z"
            fill="black" />
        <path
            d="M128.813 41.7069C129.263 41.1844 129.837 41.1727 130.42 41.3487C131.014 41.5276 131.305 41.9964 131.415 42.5865C131.501 43.0476 131.471 43.5035 131.294 43.9379C130.905 44.891 129.996 45.1241 129.163 44.8596C129.027 44.8162 128.918 44.6893 128.781 44.5904C128.759 44.6704 128.738 44.7461 128.71 44.845H127.586V40.0601H128.728V41.6764C128.757 41.6867 128.785 41.697 128.813 41.7069H128.813ZM128.721 43.1074C128.758 43.3001 128.777 43.516 128.843 43.7164C128.931 43.9831 129.135 44.137 129.42 44.1577C129.701 44.1779 129.939 44.0712 130.07 43.8231C130.311 43.3646 130.314 42.8863 130.08 42.4226C129.944 42.1517 129.698 42.0515 129.397 42.0807C129.107 42.1087 128.92 42.2687 128.836 42.5379C128.781 42.7134 128.762 42.8996 128.721 43.1078L128.721 43.1074Z"
            fill="black" />
        <path
            d="M161.757 44.5541V46.1313H160.603V41.37H161.732C161.753 41.4874 161.773 41.5936 161.805 41.7678C162.088 41.3253 162.494 41.2629 162.913 41.2582C163.577 41.2509 164.113 41.613 164.332 42.238C164.544 42.841 164.533 43.4521 164.262 44.0367C163.828 44.9709 162.889 45.0977 162.158 44.8539C162.034 44.8126 161.937 44.6917 161.758 44.5536L161.757 44.5541ZM161.743 43.1184C161.773 43.3072 161.784 43.4805 161.831 43.6427C161.926 43.9666 162.146 44.1407 162.442 44.1592C162.739 44.1777 163.008 44.0324 163.129 43.742C163.309 43.3149 163.315 42.8745 163.113 42.4526C162.984 42.1833 162.751 42.0582 162.446 42.0775C162.139 42.0973 161.933 42.2539 161.849 42.545C161.794 42.7352 161.776 42.9356 161.743 43.1184H161.743Z"
            fill="black" />
        <path
            d="M118.285 44.8404V40.0546H119.436V42.7608C119.566 42.6494 119.642 42.5982 119.7 42.5311C119.97 42.2159 120.245 41.904 120.498 41.5754C120.636 41.3974 120.79 41.3298 121.012 41.3414C121.323 41.3578 121.636 41.3457 122.003 41.3457C121.82 41.7143 121.53 41.9264 121.307 42.1892C121.086 42.4485 120.85 42.6954 120.599 42.9707C121.083 43.5857 121.549 44.1797 122.036 44.7991C121.82 44.9186 121.604 44.8365 121.406 44.8705C120.846 44.9664 120.452 44.7677 120.191 44.2571C120.076 44.0322 119.894 43.8417 119.739 43.6318C119.454 43.7199 119.448 43.9303 119.451 44.1496C119.455 44.3634 119.452 44.5776 119.452 44.8417C119.06 44.8864 118.685 44.8787 118.285 44.8412V44.8404Z"
            fill="black" />
        <path
            d="M157.735 42.5299H156.696C156.647 42.1389 156.828 41.8649 157.095 41.6404C157.636 41.1875 158.732 41.1247 159.329 41.4989C159.573 41.6516 159.726 41.8701 159.785 42.1466C159.824 42.3277 159.851 42.5144 159.853 42.6993C159.861 43.3991 159.856 44.0993 159.856 44.8335H158.792C158.762 44.7591 158.721 44.6597 158.679 44.5582C158.641 44.575 158.612 44.5789 158.597 44.5957C158.114 45.1453 157.075 45.0765 156.693 44.4684C156.388 43.9845 156.535 43.372 157.037 43.0451C157.396 42.8111 157.805 42.7471 158.221 42.7131C158.361 42.7015 158.5 42.6963 158.636 42.6886C158.655 42.2744 158.586 42.1402 158.346 42.0873C158.075 42.0271 157.93 42.1273 157.735 42.5294L157.735 42.5299ZM158.622 43.3699C158.421 43.4025 158.211 43.4086 158.021 43.4739C157.797 43.5509 157.708 43.7668 157.781 43.9445C157.852 44.1161 158.074 44.2025 158.286 44.1406C158.57 44.058 158.676 43.84 158.622 43.3699Z"
            fill="black" />
        <path
            d="M117.555 44.8463H116.487C116.456 44.7543 116.426 44.6644 116.388 44.5534C116.343 44.5809 116.306 44.5938 116.283 44.6192C115.798 45.1414 114.781 45.0678 114.398 44.4816C114.088 44.0063 114.229 43.3827 114.724 43.0523C115.082 42.8145 115.492 42.7504 115.908 42.7138C116.047 42.7014 116.188 42.6971 116.324 42.6893C116.357 42.2768 116.294 42.1474 116.052 42.0893C115.777 42.0239 115.629 42.1259 115.445 42.5203H114.378C114.37 42.0902 114.555 41.7796 114.889 41.5728C115.547 41.1646 116.244 41.1564 116.943 41.4541C117.235 41.5784 117.418 41.8257 117.479 42.1384C117.523 42.3616 117.549 42.5917 117.552 42.8188C117.561 43.4768 117.555 44.1349 117.555 44.8463ZM116.324 43.362C116.111 43.3956 115.924 43.4007 115.753 43.4575C115.502 43.5414 115.401 43.7616 115.487 43.9586C115.567 44.1409 115.825 44.2132 116.047 44.1156C116.291 44.008 116.365 43.8295 116.324 43.362Z"
            fill="black" />
        <path
            d="M135.348 43.3939H133.017C132.986 43.7909 133.096 44.0116 133.357 44.1178C133.63 44.2292 133.917 44.1565 134.114 43.8959C134.188 43.7978 134.243 43.7221 134.378 43.7251C134.677 43.732 134.976 43.7273 135.275 43.7273C135.247 44.529 134.293 45.0877 133.227 44.9385C132.231 44.7987 131.614 43.8851 131.799 42.8129C131.989 41.7109 132.928 41.098 134.041 41.2967C135.051 41.477 135.599 42.6069 135.348 43.3944V43.3939ZM134.147 42.6744C134.04 42.1991 133.869 42.046 133.527 42.0787C133.221 42.1079 133.078 42.2864 133.063 42.6744H134.147Z"
            fill="black" />
        <path
            d="M125.825 43.4089H123.456C123.476 43.8554 123.6 44.0696 123.884 44.1384C124.256 44.2287 124.52 44.0747 124.675 43.75H125.757C125.577 44.642 124.635 45.1401 123.583 44.9212C122.602 44.7173 122.07 43.8068 122.285 42.7027C122.481 41.6945 123.432 41.0893 124.489 41.2997C125.446 41.4902 126.027 42.3711 125.824 43.4089H125.825ZM124.59 42.6683C124.536 42.2326 124.358 42.0558 124.013 42.0769C123.685 42.0971 123.519 42.3035 123.539 42.6683H124.59Z"
            fill="black" />
        <path
            d="M144.617 43.4094H142.254C142.255 43.8408 142.368 44.0413 142.636 44.132C142.951 44.2382 143.192 44.1307 143.473 43.7458H144.569C144.479 44.1617 144.263 44.4701 143.92 44.6675C143.222 45.0714 142.502 45.0735 141.794 44.689C141.647 44.6094 141.515 44.4838 141.407 44.3539C140.951 43.806 140.891 42.8219 141.261 42.1608C141.615 41.526 142.366 41.1677 143.124 41.2705C144.164 41.4116 144.76 42.2309 144.616 43.4094H144.617ZM143.357 42.6679C143.325 42.252 143.164 42.0757 142.834 42.0761C142.49 42.0761 142.31 42.2782 142.305 42.6679H143.357Z"
            fill="black" />
        <path
            d="M154.275 44.9569C152.756 44.9479 151.895 43.4515 152.645 42.1225C152.835 41.7848 153.113 41.5461 153.475 41.4094C154.02 41.2033 154.569 41.199 155.112 41.4089C155.933 41.7259 156.354 42.624 156.14 43.5797C155.941 44.467 155.27 44.9625 154.275 44.9565V44.9569ZM155.004 43.1229C154.957 42.9027 154.931 42.6743 154.857 42.4631C154.77 42.215 154.577 42.0777 154.301 42.076C154.025 42.0743 153.833 42.2042 153.736 42.4515C153.561 42.8932 153.56 43.3427 153.742 43.7831C153.844 44.0287 154.038 44.1633 154.31 44.1577C154.583 44.1522 154.771 44.0016 154.859 43.7556C154.93 43.5577 154.955 43.344 155.004 43.1229Z"
            fill="black" />
        <path
            d="M152.031 42.3588H150.923C150.859 42.2749 150.794 42.1631 150.703 42.0809C150.578 41.9682 150.367 41.9914 150.278 42.1063C150.184 42.2271 150.218 42.4185 150.382 42.5084C150.543 42.5966 150.724 42.6469 150.898 42.711C151.139 42.7996 151.398 42.8542 151.619 42.9773C152.321 43.3678 152.326 44.3579 151.613 44.7226C150.908 45.0826 150.173 45.062 149.469 44.6964C149.114 44.5123 148.982 44.2654 148.917 43.7867C149.249 43.7867 149.575 43.7725 149.898 43.7962C149.985 43.8026 150.073 43.9158 150.145 43.9945C150.34 44.2078 150.538 44.2775 150.749 44.1927C150.959 44.108 151.012 43.899 150.837 43.757C150.719 43.662 150.564 43.6056 150.418 43.5536C150.176 43.4676 149.922 43.4142 149.684 43.3201C149.277 43.1588 149.036 42.8667 149.031 42.4069C149.027 41.9536 149.246 41.6375 149.643 41.4573C150.155 41.2241 150.69 41.1777 151.227 41.3807C151.659 41.5437 151.928 41.8491 152.03 42.3596L152.031 42.3588Z"
            fill="black" />
        <path
            d="M138.809 40.4852H139.981C139.997 40.7717 140.013 41.0495 140.03 41.3605C140.267 41.3747 140.491 41.3885 140.749 41.4039V42.0887C140.516 42.1024 140.293 42.1158 140.023 42.1321C140.023 42.7102 140.016 43.2766 140.027 43.8422C140.03 44.0164 140.147 44.1291 140.326 44.1562C140.436 44.173 140.548 44.1816 140.681 44.1962V44.8921C140.257 44.985 139.845 44.9932 139.439 44.9059C139.031 44.8181 138.851 44.5756 138.828 44.0865C138.804 43.6009 138.817 43.114 138.814 42.6276C138.813 42.4736 138.814 42.3196 138.814 42.142C138.624 42.1218 138.473 42.1054 138.294 42.0865V41.4259C138.45 41.4009 138.611 41.3751 138.809 41.3433V40.4857L138.809 40.4852Z"
            fill="black" />
        <path
            d="M136.193 40.4896H137.329C137.344 40.7653 137.359 41.0427 137.375 41.3597C137.62 41.3756 137.855 41.3907 138.11 41.407V42.0905C137.877 42.103 137.654 42.1146 137.386 42.1288C137.375 42.2522 137.358 42.3739 137.356 42.4956C137.352 42.8101 137.353 43.1245 137.355 43.4389C137.359 44.0797 137.39 44.115 138.03 44.2053V44.9124C137.606 44.964 137.184 45.001 136.765 44.8974C136.424 44.8135 136.223 44.5842 136.206 44.2255C136.187 43.8406 136.178 43.4548 136.171 43.0694C136.166 42.7713 136.17 42.4728 136.17 42.1511C135.986 42.1279 135.835 42.1085 135.651 42.0853V41.4139C135.81 41.395 135.961 41.3769 136.148 41.355C136.163 41.0655 136.178 40.7873 136.193 40.4901L136.193 40.4896Z"
            fill="black" />
        <path
            d="M146.371 44.8499H145.253C145.161 44.5514 145.138 41.9424 145.224 41.3751H146.339C146.356 41.5273 146.372 41.6779 146.393 41.8624C146.555 41.6972 146.681 41.5071 146.857 41.4069C147.043 41.3011 147.278 41.2809 147.544 41.2095V42.2198C147.418 42.234 147.294 42.2499 147.17 42.2619C146.782 42.2994 146.533 42.5071 146.452 42.886C146.405 43.1075 146.381 43.3368 146.375 43.5635C146.363 43.9755 146.372 44.388 146.372 44.8495L146.371 44.8499Z"
            fill="black" />
        <path
            d="M175.008 10.4387V8.30369H174.157V7.77466H176.57V8.26971C176.289 8.28563 176.024 8.30068 175.711 8.31831V10.4387H175.008H175.008Z"
            fill="black" />
    </g>
    <defs>
        <clipPath id="clip0_1253_2451">
            <rect width="180" height="47.0903" fill="white" />
        </clipPath>
    </defs>
</svg>