<svg width="30" height="30" viewBox="0 0 30 30" fill="none" xmlns="http://www.w3.org/2000/svg">
    <path
        d="M21.9747 12.1377C21.3456 11.9664 20.6835 11.875 20 11.875C16.8335 11.875 14.1253 13.8374 13.0253 16.6122M21.9747 12.1377C25.1589 13.0045 27.5 15.9164 27.5 19.375C27.5 23.5171 24.1421 26.875 20 26.875C18.0791 26.875 16.3269 26.1529 15 24.9653M21.9747 12.1377C22.3137 11.2827 22.5 10.3506 22.5 9.375C22.5 5.23286 19.1421 1.875 15 1.875C10.8579 1.875 7.5 5.23286 7.5 9.375C7.5 10.3506 7.68629 11.2827 8.02522 12.1377M13.0253 16.6122C12.6863 17.4672 12.5 18.3994 12.5 19.375C12.5 21.5962 13.4656 23.592 15 24.9653M13.0253 16.6122C10.7393 15.99 8.88786 14.3138 8.02522 12.1377M15 24.9653C13.6731 26.1529 11.9209 26.875 10 26.875C5.85786 26.875 2.5 23.5171 2.5 19.375C2.5 15.9164 4.84117 13.0045 8.02522 12.1377"
        stroke="white" stroke-width="1.875" stroke-linecap="round" />
</svg>