<svg width="24" height="25" viewBox="0 0 24 25" fill="none" xmlns="http://www.w3.org/2000/svg">
<path d="M21.3175 7.23172L20.8239 6.37512C20.4506 5.72729 20.264 5.40338 19.9464 5.27421C19.6288 5.14505 19.2696 5.24697 18.5513 5.45081L17.3311 5.79451C16.8725 5.90027 16.3913 5.84027 15.9726 5.62512L15.6357 5.43075C15.2766 5.20076 15.0004 4.86166 14.8475 4.46307L14.5136 3.46569C14.294 2.80567 14.1842 2.47566 13.9228 2.2869C13.6615 2.09814 13.3143 2.09814 12.6199 2.09814H11.5051C10.8108 2.09814 10.4636 2.09814 10.2022 2.2869C9.94085 2.47566 9.83106 2.80567 9.61149 3.46569L9.27753 4.46307C9.12465 4.86166 8.84845 5.20076 8.48937 5.43075L8.15249 5.62512C7.73374 5.84027 7.25259 5.90027 6.79398 5.79451L5.57375 5.45081C4.85541 5.24697 4.49625 5.14505 4.17867 5.27421C3.86109 5.40338 3.67445 5.72729 3.30115 6.37512L2.80757 7.23172C2.45766 7.83897 2.2827 8.1426 2.31666 8.46582C2.35061 8.78904 2.58483 9.04951 3.05326 9.57045L4.0843 10.7231C4.3363 11.0421 4.51521 11.5981 4.51521 12.098C4.51521 12.5981 4.33636 13.1539 4.08433 13.473L3.05326 14.6257C2.58483 15.1467 2.35062 15.4071 2.31666 15.7304C2.2827 16.0536 2.45766 16.3572 2.80757 16.9644L3.30114 17.821C3.67443 18.4688 3.86109 18.7928 4.17867 18.9219C4.49625 19.0511 4.85542 18.9492 5.57377 18.7453L6.79394 18.4016C7.25263 18.2958 7.73387 18.3559 8.15267 18.5711L8.4895 18.7655C8.84851 18.9955 9.12464 19.3345 9.2775 19.7331L9.61149 20.7306C9.83106 21.3906 9.94085 21.7206 10.2022 21.9094C10.4636 22.0981 10.8108 22.0981 11.5051 22.0981H12.6199C13.3143 22.0981 13.6615 22.0981 13.9228 21.9094C14.1842 21.7206 14.294 21.3906 14.5136 20.7306L14.8476 19.7331C15.0004 19.3345 15.2765 18.9955 15.6356 18.7655L15.9724 18.5711C16.3912 18.3559 16.8724 18.2958 17.3311 18.4016L18.5513 18.7453C19.2696 18.9492 19.6288 19.0511 19.9464 18.9219C20.264 18.7928 20.4506 18.4688 20.8239 17.821L21.3175 16.9644C21.6674 16.3572 21.8423 16.0536 21.8084 15.7304C21.7744 15.4071 21.5402 15.1467 21.0718 14.6257L20.0407 13.473C19.7887 13.1539 19.6098 12.5981 19.6098 12.098C19.6098 11.5981 19.7888 11.0421 20.0407 10.7231L21.0718 9.57045C21.5402 9.04951 21.7744 8.78904 21.8084 8.46582C21.8423 8.1426 21.6674 7.83897 21.3175 7.23172Z" stroke="white" stroke-width="1.5" stroke-linecap="round"/>
<path d="M15.5195 12.0903C15.5195 14.0233 13.9525 15.5903 12.0195 15.5903C10.0865 15.5903 8.51953 14.0233 8.51953 12.0903C8.51953 10.1573 10.0865 8.59033 12.0195 8.59033C13.9525 8.59033 15.5195 10.1573 15.5195 12.0903Z" stroke="white" stroke-width="1.5"/>
</svg>
