<svg width="22" height="22" viewBox="0 0 22 22" fill="none" xmlns="http://www.w3.org/2000/svg">
    <path
        d="M17.9954 7.63966L16.4763 6.32047C15.3819 5.36997 14.9528 4.85865 14.3601 5.03941C13.6211 5.2648 13.8644 6.68698 13.8644 7.16711C12.7153 7.16711 11.5207 7.07873 10.3881 7.26286C6.6492 7.87074 5.48004 10.5309 5.48004 13.3969C6.53828 12.7482 7.59547 12.0248 8.86735 11.7242C10.455 11.3489 12.2281 11.5279 13.8644 11.5279C13.8644 12.0081 13.6211 13.4303 14.3601 13.6557C15.0317 13.8605 15.3819 13.3251 16.4763 12.3746L17.9954 11.0554C18.9272 10.2463 19.3931 9.84168 19.3931 9.34754C19.3931 8.85342 18.9272 8.44884 17.9954 7.63966Z"
        stroke="white" stroke-width="1.30435" stroke-linecap="round" stroke-linejoin="round" />
    <path
        d="M9.45192 3.26416C6.09518 3.27019 4.33743 3.35244 3.2141 4.47349C2.00183 5.68331 2.00183 7.63046 2.00183 11.5248C2.00183 15.4191 2.00183 17.3662 3.21409 18.5761C4.42636 19.7859 6.37747 19.7859 10.2797 19.7859C14.1819 19.7859 16.133 19.7859 17.3453 18.5761C18.1893 17.7337 18.4457 16.534 18.5236 14.5685"
        stroke="white" stroke-width="1.30435" stroke-linecap="round" stroke-linejoin="round" />
</svg>