<svg width="30" height="30" viewBox="0 0 30 30" fill="none" xmlns="http://www.w3.org/2000/svg">
    <path
        d="M20.7659 20.1058C17.4745 21.9597 15.5966 25.8012 15 26.8751V10.0001C15.5181 9.06754 17.0025 6.39567 19.5396 4.57969C20.6085 3.81468 21.1429 3.43217 21.8215 3.78094C22.5 4.12973 22.5 4.89963 22.5 6.43942V17.4893C22.5 18.3211 22.5 18.737 22.3292 19.0292C22.1584 19.3215 21.6942 19.583 20.7659 20.1058Z"
        stroke="white" stroke-width="1.875" stroke-linecap="round" stroke-linejoin="round" />
    <path
        d="M15 9.75695C14.1414 8.85504 11.6522 6.713 7.4757 5.96198C5.35987 5.5815 4.30196 5.39126 3.40097 6.12041C2.5 6.84956 2.5 8.0336 2.5 10.4017V18.9121C2.5 21.0774 2.5 22.16 3.07825 22.8359C3.6565 23.5119 4.92956 23.7408 7.4757 24.1986C9.74541 24.6068 11.5168 25.2571 12.799 25.9106C14.0605 26.5535 14.6913 26.875 15 26.875C15.3087 26.875 15.9395 26.5535 17.201 25.9106C18.4833 25.2571 20.2546 24.6068 22.5242 24.1986C25.0705 23.7408 26.3435 23.5119 26.9217 22.8359C27.5 22.16 27.5 21.0774 27.5 18.9121V10.4017C27.5 8.0336 27.5 6.84956 26.599 6.12041C25.698 5.39126 23.75 5.96198 22.5 6.875"
        stroke="white" stroke-width="1.875" stroke-linecap="round" stroke-linejoin="round" />
</svg>